<?xml version="1.0" standalone="no"?>
<!DOCTYPE svg PUBLIC "-//W3C//DTD SVG 20010904//EN"
 "http://www.w3.org/TR/2001/REC-SVG-20010904/DTD/svg10.dtd">
<svg version="1.0" xmlns="http://www.w3.org/2000/svg"
 width="100px" height="100px" viewBox="0 0 2300.000000 2300.000000"
 preserveAspectRatio="xMidYMid meet">
<metadata>
Created by potrace 1.16, written by Peter Selinger 2001-2019
</metadata>
<g transform="translate(0.000000,2300.000000) scale(0.100000,-0.100000)"
fill="blue" stroke="none">
<path d="M11175 22994 c-231 -9 -519 -26 -720 -45 -2962 -267 -5706 -1685
-7672 -3965 -596 -692 -1135 -1496 -1547 -2314 -720 -1425 -1117 -2907 -1217
-4540 -16 -251 -16 -1009 0 -1260 45 -745 149 -1438 317 -2116 571 -2315 1854
-4396 3680 -5971 1806 -1557 4073 -2519 6439 -2732 393 -36 603 -45 1045 -45
442 0 652 9 1045 45 2481 223 4819 1255 6690 2954 169 153 530 512 695 690
1737 1879 2788 4232 3019 6760 35 382 44 598 44 1045 0 447 -9 663 -44 1045
-174 1907 -814 3717 -1874 5305 -674 1010 -1472 1880 -2417 2636 -1862 1490
-4114 2352 -6518 2494 -182 11 -809 20 -965 14z m915 -175 c2442 -125 4764
-1037 6655 -2614 292 -243 450 -389 761 -699 310 -311 455 -468 699 -761 1494
-1791 2396 -3982 2590 -6290 28 -343 37 -562 37 -955 0 -393 -9 -612 -37 -955
-194 -2308 -1096 -4499 -2590 -6290 -244 -293 -389 -450 -699 -761 -311 -310
-469 -456 -761 -699 -1794 -1496 -3981 -2396 -6290 -2590 -624 -52 -1286 -52
-1910 0 -2309 194 -4496 1094 -6290 2590 -292 243 -450 389 -761 699 -310 311
-456 469 -699 761 -1496 1795 -2396 3981 -2590 6290 -51 620 -51 1290 0 1910
194 2309 1094 4495 2590 6290 243 292 389 450 699 761 465 464 866 808 1366
1171 2102 1526 4632 2276 7230 2142z"/>
<path d="M11045 22349 c-2220 -92 -4369 -873 -6140 -2232 -632 -485 -1241
-1071 -1754 -1687 -1046 -1256 -1804 -2754 -2195 -4339 -417 -1689 -417 -3493
0 -5182 564 -2288 1865 -4334 3714 -5840 1307 -1066 2902 -1832 4540 -2183
2204 -472 4469 -256 6530 621 1284 547 2442 1331 3440 2332 859 862 1536 1807
2071 2896 1060 2154 1369 4593 883 6955 -502 2442 -1844 4644 -3804 6241
-2043 1665 -4641 2527 -7285 2418z m1050 -170 c2955 -162 5710 -1553 7623
-3848 1386 -1662 2236 -3702 2431 -5836 34 -370 44 -593 44 -995 0 -402 -10
-625 -44 -995 -256 -2800 -1631 -5400 -3818 -7223 -1662 -1386 -3702 -2236
-5836 -2431 -368 -34 -593 -44 -995 -44 -402 0 -627 10 -995 44 -2800 256
-5400 1631 -7223 3818 -1386 1662 -2236 3702 -2431 5836 -34 370 -44 593 -44
995 0 402 10 625 44 995 256 2800 1631 5400 3818 7223 1774 1479 3971 2344
6256 2462 390 20 796 20 1170 -1z"/>
<path d="M10730 20570 l0 -770 470 0 470 0 0 170 0 170 -265 0 -265 0 0 135 0
135 250 0 250 0 0 160 0 160 -250 0 -250 0 0 140 0 140 265 0 265 0 0 165 0
165 -470 0 -470 0 0 -770z"/>
<path d="M12140 21321 c0 -6 -40 -340 -90 -743 -49 -402 -90 -741 -90 -753 0
-20 10 -22 228 -48 447 -53 549 -56 702 -21 235 54 433 250 499 495 110 408
-29 759 -364 914 -120 56 -319 96 -695 140 -74 9 -147 18 -162 21 -17 3 -28 1
-28 -5z m573 -413 c237 -65 330 -226 284 -492 -41 -235 -160 -336 -397 -338
-52 0 -119 3 -148 7 -51 7 -53 8 -48 34 3 14 26 199 51 411 26 212 48 391 51
399 6 17 106 8 207 -21z"/>
<path d="M9715 21181 l-200 -46 -27 -440 c-16 -242 -27 -475 -25 -518 1 -42 0
-77 -3 -77 -3 1 -17 28 -33 62 -15 33 -126 237 -247 453 l-220 392 -198 -45
c-108 -25 -198 -46 -200 -47 -3 -3 110 -1539 115 -1544 3 -4 364 76 369 82 8
8 -90 961 -102 997 -11 31 9 -1 47 -76 101 -203 455 -824 469 -824 23 0 244
52 251 59 8 8 50 768 52 925 0 64 3 114 5 111 2 -2 28 -75 57 -162 44 -134
281 -771 290 -781 3 -4 367 78 373 83 2 2 -537 1362 -566 1426 -6 15 -29 11
-207 -30z"/>
<path d="M7475 20470 c-278 -119 -419 -183 -417 -192 6 -24 584 -1383 591
-1391 6 -6 842 341 857 356 6 6 -119 307 -128 307 -4 0 -113 -45 -243 -100
-130 -55 -239 -100 -243 -100 -7 0 -89 192 -98 228 -4 14 38 35 218 111 123
51 226 96 229 100 9 9 -113 291 -126 291 -5 0 -109 -42 -230 -94 -121 -51
-223 -91 -227 -87 -4 3 -29 59 -57 124 l-50 119 53 23 c29 13 136 58 237 101
101 42 188 80 192 84 10 9 -113 300 -127 300 -6 -1 -200 -81 -431 -180z"/>
<path d="M14995 20600 c-38 -10 -112 -40 -165 -66 -80 -40 -109 -62 -191 -143
-98 -99 -149 -178 -198 -311 -155 -425 28 -855 432 -1010 113 -44 195 -60 313
-60 88 0 103 2 109 18 3 9 36 94 72 187 36 94 69 179 73 191 8 21 7 21 -53 -4
-135 -54 -254 -53 -372 4 -267 131 -293 509 -50 733 131 121 325 133 483 31
67 -43 112 -95 157 -185 l32 -65 80 208 c93 238 96 207 -26 304 -200 160 -477
227 -696 168z"/>
<path d="M15907 19480 c-224 -347 -410 -636 -413 -643 -3 -8 55 -52 161 -120
90 -59 169 -107 173 -107 5 0 84 117 177 259 l167 259 47 -29 c116 -73 426
-277 426 -281 0 -3 -76 -121 -168 -263 -92 -142 -164 -262 -160 -266 28 -27
337 -219 343 -212 14 16 819 1260 822 1270 2 8 -219 161 -328 226 -7 4 -73
-87 -174 -243 -147 -228 -163 -249 -182 -239 -10 6 -103 65 -206 132 -103 68
-202 132 -219 143 l-33 20 160 246 c88 136 160 250 160 255 0 8 -316 216 -334
220 -6 1 -195 -281 -419 -627z"/>
<path d="M6195 19783 c-214 -134 -390 -249 -389 -256 1 -10 771 -1252 796
-1284 6 -8 121 59 401 234 216 135 394 247 396 249 2 2 -36 67 -84 144 -55 88
-92 139 -100 136 -7 -2 -110 -65 -229 -140 l-215 -134 -57 91 c-31 51 -63 102
-71 114 -14 20 -7 25 200 155 l215 134 -85 135 c-46 73 -88 133 -94 131 -5 -1
-99 -58 -209 -127 -110 -69 -204 -125 -208 -125 -11 0 -134 197 -136 217 -1
10 80 66 217 152 119 75 217 139 217 143 0 8 -149 250 -164 264 -8 9 -109 -50
-401 -233z"/>
<path d="M17450 18429 c-267 -285 -500 -537 -518 -558 l-33 -39 78 -74 c43
-41 106 -100 139 -131 l62 -58 202 216 c111 119 204 214 207 212 3 -4 -126
-603 -143 -658 -3 -10 52 -67 162 -170 92 -85 169 -154 172 -154 3 0 31 161
62 357 31 196 58 360 61 363 3 3 31 -6 62 -20 166 -77 330 -41 473 102 75 75
130 178 146 274 20 126 -25 252 -138 385 -53 60 -490 474 -502 474 -4 -1 -225
-235 -492 -521z m627 -31 c33 -35 67 -75 77 -89 50 -78 39 -152 -36 -235 -100
-108 -187 -97 -348 44 l-45 39 140 151 c77 82 143 150 146 151 3 1 33 -27 66
-61z"/>
<path d="M5225 18893 c-217 -34 -347 -119 -733 -476 l-172 -160 48 -51 c26
-28 260 -279 521 -558 260 -280 475 -508 478 -508 18 0 444 412 520 503 78 94
151 230 174 327 19 77 16 241 -5 319 -69 253 -303 498 -551 577 -72 23 -218
37 -280 27z m160 -417 c69 -34 206 -164 248 -236 42 -72 61 -163 48 -227 -18
-92 -60 -161 -156 -261 l-90 -93 -292 313 -292 313 61 58 c165 159 326 204
473 133z"/>
<path d="M11245 18889 c-529 -15 -1053 -91 -1590 -229 -1082 -278 -2108 -814
-2958 -1545 -1066 -916 -1846 -2099 -2261 -3430 -167 -536 -276 -1125 -316
-1710 -14 -206 -14 -744 0 -950 85 -1253 472 -2437 1140 -3487 641 -1007 1534
-1858 2579 -2460 198 -114 587 -306 801 -396 754 -317 1553 -506 2385 -562
206 -14 744 -14 950 0 1494 102 2878 629 4065 1549 370 287 747 647 1075 1028
736 854 1282 1905 1554 2993 155 617 222 1163 222 1810 0 529 -39 934 -137
1435 -243 1233 -817 2414 -1639 3368 -670 777 -1443 1379 -2350 1827 -1110
549 -2250 794 -3520 759z m690 -169 c1650 -106 3167 -743 4395 -1846 139 -125
465 -452 581 -584 853 -965 1433 -2129 1683 -3380 138 -693 173 -1446 100
-2155 -157 -1517 -789 -2938 -1820 -4085 -125 -139 -452 -465 -584 -581 -965
-853 -2130 -1433 -3380 -1683 -693 -138 -1446 -173 -2155 -100 -1496 154
-2907 776 -4045 1783 -131 116 -459 442 -584 581 -1030 1145 -1663 2567 -1820
4085 -49 476 -49 1014 0 1490 157 1518 790 2940 1820 4085 125 139 453 465
584 581 965 853 2130 1433 3380 1683 295 59 647 105 950 125 185 12 712 13
895 1z"/>
<path d="M11214 18149 c-1333 -56 -2628 -519 -3699 -1324 -887 -667 -1604
-1553 -2061 -2545 -491 -1070 -693 -2265 -578 -3424 138 -1391 699 -2684 1622
-3739 606 -693 1392 -1281 2222 -1663 1174 -540 2476 -726 3755 -538 1255 185
2440 735 3408 1582 693 606 1281 1392 1663 2222 491 1070 693 2265 578 3424
-155 1562 -850 3011 -1970 4106 -845 825 -1894 1418 -3009 1698 -482 122 -885
180 -1390 202 -251 11 -274 11 -541 -1z m-410 -3348 c33 -12 88 -37 123 -56
l63 -35 63 25 c112 45 213 65 321 65 145 0 255 -33 379 -112 l47 -30 83 41
c109 54 182 72 298 73 151 0 307 -50 489 -157 l45 -27 86 54 c97 61 212 103
309 113 160 16 357 -68 465 -199 l36 -45 -81 -188 c-45 -103 -187 -438 -315
-743 -128 -305 -267 -633 -309 -729 -42 -96 -74 -177 -71 -180 3 -3 220 -15
481 -27 262 -13 481 -25 486 -26 6 -2 -23 -26 -63 -52 -104 -69 -158 -115
-176 -149 -39 -77 63 -90 432 -58 249 22 430 27 454 12 10 -6 1 -23 -38 -72
-60 -74 -101 -151 -101 -189 0 -63 95 -97 239 -86 46 3 189 20 317 36 224 29
352 36 402 21 23 -6 19 -12 -67 -116 -99 -121 -161 -217 -161 -252 0 -59 90
-68 395 -38 194 18 622 41 630 33 3 -3 -31 -41 -76 -84 -100 -97 -136 -155
-121 -189 22 -49 146 -46 487 10 213 36 445 56 445 40 0 -5 -32 -41 -70 -81
-117 -120 -135 -198 -54 -224 55 -18 243 -7 399 25 158 31 455 108 662 169 84
25 158 46 165 46 16 0 -32 -49 -352 -359 -853 -825 -1481 -1305 -2105 -1611
-812 -396 -1529 -441 -2235 -138 -181 77 -424 220 -589 345 -25 18 -48 30 -53
25 -4 -4 -44 -70 -89 -147 -243 -417 -436 -644 -685 -807 l-91 -60 -118 -244
c-65 -134 -121 -244 -125 -244 -3 0 -25 46 -49 103 -24 56 -70 165 -103 243
l-59 141 -92 46 c-250 125 -477 391 -695 817 -40 80 -76 147 -78 149 -2 2 -25
-16 -51 -40 -462 -428 -1013 -611 -1618 -538 -816 99 -1783 670 -2970 1753
-195 178 -656 618 -652 623 3 2 112 -21 243 -51 659 -151 1004 -194 1076 -137
15 12 19 23 14 39 -12 36 -96 111 -214 190 -79 53 -110 78 -102 86 16 16 189
20 282 7 46 -7 211 -42 368 -78 292 -67 427 -86 455 -63 41 34 -7 119 -139
250 -36 35 -66 68 -66 72 0 15 88 19 167 8 45 -6 176 -31 290 -57 173 -38 227
-46 319 -47 97 -1 115 2 133 18 32 29 28 88 -13 171 -29 60 -54 99 -156 238
-14 20 -14 20 55 13 39 -4 162 -20 275 -37 420 -61 560 -48 560 52 0 45 -50
132 -131 226 -65 77 -68 82 -42 78 34 -7 513 -67 713 -91 80 -9 206 -17 280
-18 182 -1 213 16 150 87 -34 40 -129 104 -253 172 -48 27 -84 52 -80 55 5 4
205 33 446 65 240 33 442 62 449 66 7 5 -114 285 -371 856 l-383 848 5 59 c7
73 49 158 97 197 21 17 63 35 104 46 116 28 263 2 492 -89 l102 -40 49 36 c67
48 161 93 230 111 79 20 229 13 307 -14z"/>
<path d="M3710 17518 c-157 -193 -288 -357 -292 -363 -5 -8 194 -175 588 -495
328 -265 597 -480 598 -478 2 2 130 161 286 353 155 193 287 355 292 362 6 8
-32 44 -123 118 -72 59 -134 103 -138 98 -32 -49 -327 -403 -334 -400 -16 5
-196 152 -196 160 -1 5 65 90 146 190 80 100 150 187 155 193 8 10 -220 204
-240 204 -7 0 -237 -276 -308 -369 -9 -12 -29 0 -115 69 -57 46 -106 85 -107
86 -2 1 71 95 163 208 91 113 164 210 160 215 -6 11 -240 201 -246 201 -2 0
-132 -158 -289 -352z"/>
<path d="M18475 17320 c-324 -263 -589 -482 -587 -487 1 -4 59 -78 128 -164
l126 -157 592 479 c325 264 592 483 594 487 3 9 -243 316 -256 319 -4 1 -272
-214 -597 -477z"/>
<path d="M19339 16851 c-119 -39 -230 -127 -281 -223 -21 -38 -23 -55 -22
-163 1 -108 5 -132 38 -240 46 -150 55 -228 32 -277 -25 -52 -71 -81 -136 -86
-76 -5 -134 33 -181 121 -31 57 -34 70 -37 167 -3 68 1 126 10 166 l15 61
-176 -5 c-97 -2 -177 -5 -179 -7 -1 -1 -7 -40 -13 -87 -27 -224 53 -442 225
-613 122 -121 222 -165 377 -165 220 0 446 164 489 354 15 66 -1 174 -51 345
-47 165 -50 226 -13 270 63 75 168 54 233 -47 41 -65 61 -142 61 -235 0 -77 1
-79 23 -74 12 3 84 15 160 28 l139 22 -7 71 c-28 279 -189 528 -393 607 -80
31 -235 36 -313 10z"/>
<path d="M3165 16502 c-118 -41 -202 -116 -284 -253 -79 -132 -304 -580 -295
-588 14 -13 1355 -693 1358 -689 2 1 41 78 88 170 l85 168 -91 49 c-50 27
-170 88 -266 137 l-175 88 40 7 c22 4 177 15 345 24 168 9 308 20 311 23 12
12 211 403 208 406 -2 2 -167 -17 -367 -42 -199 -25 -364 -43 -366 -41 -2 2 1
32 7 67 21 125 -17 246 -107 336 -127 127 -346 188 -491 138z m213 -426 c124
-63 141 -151 62 -315 l-39 -81 -181 90 c-99 49 -180 95 -180 101 0 20 62 128
98 170 20 23 50 48 66 55 42 19 113 11 174 -20z"/>
<path d="M20160 15825 c-85 -39 -155 -76 -155 -82 0 -5 31 -76 69 -156 38 -81
67 -149 65 -151 -2 -2 -238 -113 -524 -246 -286 -133 -524 -245 -528 -249 -7
-7 144 -345 163 -365 5 -5 238 99 536 238 290 135 531 243 535 239 3 -5 36
-73 73 -153 37 -79 68 -146 70 -147 6 -6 321 146 319 154 -3 16 -454 978 -461
984 -4 4 -77 -26 -162 -66z"/>
<path d="M1985 14044 c-70 -245 -123 -450 -118 -454 15 -15 1456 -421 1463
-413 4 4 62 202 130 438 68 237 125 435 127 441 2 7 -61 29 -158 57 -90 26
-164 46 -165 44 -1 -1 -34 -114 -74 -252 -39 -137 -73 -251 -75 -253 -4 -4
-230 59 -244 68 -7 4 14 92 59 245 38 132 68 240 67 240 -11 7 -308 87 -311
84 -1 -2 -32 -109 -69 -238 -36 -128 -68 -235 -70 -237 -8 -8 -257 70 -257 80
0 6 31 121 70 255 38 135 68 247 65 249 -3 3 -303 92 -311 92 -1 0 -58 -201
-129 -446z"/>
<path d="M20175 14267 c-396 -121 -722 -222 -724 -224 -2 -1 22 -91 55 -198
43 -144 62 -195 74 -195 19 1 1439 436 1447 444 9 9 -111 396 -122 395 -5 -1
-334 -100 -730 -222z"/>
<path d="M19653 13368 c3 -18 16 -107 28 -198 12 -91 26 -168 31 -171 4 -3 69
-13 142 -23 l134 -18 6 -32 c18 -104 77 -550 73 -560 -3 -6 -61 -36 -131 -66
-119 -52 -126 -56 -121 -80 2 -14 14 -97 25 -185 12 -88 24 -168 28 -177 6
-15 114 38 722 348 393 201 717 368 719 370 8 8 -63 496 -74 509 -8 10 -1541
316 -1579 315 -4 0 -6 -15 -3 -32z m957 -508 c140 -22 287 -42 325 -46 107
-10 108 -17 9 -57 -49 -19 -201 -87 -338 -151 -137 -64 -250 -116 -251 -114
-2 2 -15 86 -29 188 -15 102 -29 195 -32 208 -4 21 -2 23 28 17 18 -3 148 -23
288 -45z"/>
<path d="M1759 12968 c-7 -33 -35 -405 -30 -409 3 -3 133 -17 289 -29 155 -13
286 -26 291 -30 9 -5 -34 -548 -43 -558 -3 -2 -136 8 -297 22 -161 15 -293 25
-295 24 -6 -7 -36 -399 -31 -404 6 -6 1424 -133 1487 -134 l36 0 18 201 c9
111 16 202 14 204 -2 1 -140 14 -308 29 -167 15 -306 29 -309 31 -6 7 40 549
48 556 3 3 143 -6 311 -21 168 -15 306 -26 308 -25 7 6 39 400 33 406 -3 3
-332 34 -731 68 -399 34 -740 64 -757 67 -18 3 -33 4 -34 2z"/>
<path d="M19860 11605 c-4 -10 -28 -390 -26 -393 11 -10 701 -54 868 -56 103
0 184 -4 180 -7 -4 -3 -56 -25 -116 -49 -109 -43 -143 -64 -828 -495 -146 -92
-158 -102 -159 -130 0 -16 -6 -105 -12 -197 l-12 -166 65 -6 c36 -4 358 -26
715 -51 358 -24 673 -47 701 -50 l51 -5 12 196 c7 108 11 197 9 199 -8 7 -646
49 -838 54 l-215 6 85 34 c47 19 112 47 144 63 63 32 841 520 865 543 9 9 17
72 27 206 8 106 13 194 11 195 -2 2 -1526 111 -1527 109z"/>
<path d="M1790 11118 c-69 -6 -126 -11 -127 -11 -4 -5 76 -1089 81 -1094 6 -7
338 16 345 23 3 2 0 80 -6 171 -7 92 -11 168 -10 169 1 1 245 18 542 38 297
20 560 39 585 42 l45 5 -13 202 c-8 111 -15 203 -16 204 -2 2 -259 -15 -572
-37 -313 -22 -576 -40 -585 -40 -14 0 -18 17 -23 93 -4 50 -9 127 -13 170 l-6
77 -51 -1 c-28 -1 -107 -6 -176 -11z"/>
<path d="M2913 8935 c-93 -47 -128 -160 -84 -272 10 -26 39 -91 63 -143 62
-132 71 -157 64 -175 -14 -36 -69 -5 -226 129 -36 31 -92 70 -125 88 -51 28
-70 33 -130 33 -55 0 -78 -5 -106 -22 -112 -70 -141 -243 -55 -329 56 -56 122
-68 316 -58 91 4 184 8 208 7 100 -2 72 -39 -100 -135 -140 -78 -233 -153
-255 -205 -27 -66 -10 -158 40 -211 60 -65 188 -90 270 -54 83 37 125 117 175
337 53 228 87 218 148 -45 57 -245 124 -321 274 -307 105 9 186 74 211 168 25
93 -31 173 -178 261 -43 25 -115 67 -160 94 -74 43 -105 75 -89 91 8 9 81 8
266 -1 144 -8 173 -7 225 9 77 22 109 46 129 95 33 82 15 167 -51 240 -48 54
-105 76 -176 68 -61 -7 -99 -28 -217 -119 -149 -114 -202 -149 -224 -149 -29
0 -16 64 38 174 110 228 119 324 34 403 -63 59 -196 72 -285 28z"/>
<path d="M19876 8868 c-54 -15 -109 -73 -126 -133 -19 -68 -4 -129 71 -288 33
-72 63 -145 66 -164 5 -30 3 -33 -20 -33 -26 0 -92 46 -207 144 -36 30 -94 70
-129 88 -172 88 -333 -7 -332 -194 0 -69 21 -112 71 -145 52 -36 104 -45 229
-42 251 6 324 4 328 -8 7 -19 -36 -50 -171 -126 -145 -80 -225 -150 -246 -211
-43 -132 69 -266 222 -266 144 0 201 71 264 331 40 162 47 179 75 179 26 0 33
-17 78 -202 32 -130 45 -167 77 -214 50 -73 88 -94 174 -94 88 0 158 34 203
98 27 40 32 56 32 107 0 103 -53 157 -272 279 -124 68 -167 100 -160 119 4 12
76 14 342 8 214 -5 295 47 295 189 0 62 -21 114 -63 158 -39 41 -70 58 -123
67 -84 13 -153 -21 -329 -160 -111 -87 -138 -105 -166 -105 -19 0 -21 4 -16
37 4 20 31 88 61 152 95 201 104 251 61 337 -34 68 -84 96 -179 100 -39 2 -88
-2 -110 -8z"/>
<path d="M4181 6735 c-160 -35 -324 -129 -447 -256 -171 -178 -243 -363 -232
-603 5 -95 10 -124 40 -201 72 -191 224 -361 404 -453 l42 -21 172 136 c95 76
169 138 164 140 -5 1 -43 9 -84 18 -98 20 -166 55 -228 119 -95 96 -132 204
-114 327 16 104 51 171 135 253 192 189 431 207 602 45 35 -33 68 -77 88 -118
31 -63 32 -71 32 -188 0 -79 3 -119 10 -114 6 4 84 66 173 137 l164 129 -6 38
c-29 181 -202 425 -372 525 -155 92 -365 125 -543 87z"/>
<path d="M18545 6704 c-162 -32 -315 -136 -494 -336 -126 -141 -351 -410 -351
-420 0 -8 1146 -957 1164 -964 12 -5 311 352 413 494 75 104 136 223 160 312
27 100 24 275 -5 364 -45 133 -110 235 -214 332 -205 192 -433 266 -673 218z
m202 -406 c64 -24 151 -87 219 -160 123 -130 140 -256 59 -418 -36 -71 -142
-213 -155 -208 -14 5 -650 532 -650 539 0 12 113 135 158 172 123 102 235 125
369 75z"/>
<path d="M4769 5493 c-250 -262 -490 -514 -533 -560 l-79 -84 143 -137 c79
-75 146 -138 150 -140 4 -1 103 99 221 223 118 124 217 224 220 223 18 -7 394
-373 394 -383 0 -7 -93 -111 -208 -231 -114 -121 -206 -223 -205 -229 3 -12
278 -275 287 -275 8 0 1055 1096 1059 1108 1 5 -63 71 -144 147 l-146 139 -77
-80 c-42 -43 -136 -141 -209 -218 l-132 -138 -200 193 c-110 106 -199 196
-198 200 2 5 69 77 149 161 80 84 171 180 202 213 l55 61 -147 141 -148 141
-454 -475z"/>
<path d="M17540 5529 c-102 -12 -169 -32 -275 -84 -492 -238 -626 -893 -262
-1281 146 -156 315 -237 527 -250 479 -31 891 357 890 839 -1 221 -73 390
-235 552 -134 133 -276 202 -465 225 -46 5 -89 9 -95 9 -5 -1 -44 -5 -85 -10z
m135 -385 c155 -40 308 -192 350 -347 41 -153 0 -305 -110 -405 -74 -68 -145
-102 -231 -109 -138 -11 -257 40 -371 161 -139 147 -178 335 -102 494 28 58
120 152 177 181 83 42 187 52 287 25z"/>
<path d="M6079 4543 c-377 -587 -394 -623 -394 -813 0 -109 2 -118 32 -180 72
-147 249 -301 461 -402 259 -123 467 -97 641 82 72 73 140 172 402 578 l248
384 -171 110 c-94 60 -174 105 -178 101 -4 -4 -94 -143 -200 -308 -317 -493
-374 -571 -454 -612 -82 -43 -224 2 -310 98 -50 56 -62 93 -53 169 9 74 59
163 322 572 172 266 240 380 232 386 -18 14 -327 212 -331 212 -2 0 -113 -170
-247 -377z"/>
<path d="M16020 4454 c-214 -45 -432 -187 -556 -360 -97 -135 -145 -286 -146
-454 -1 -125 18 -211 72 -327 132 -285 380 -462 670 -480 166 -10 309 29 485
133 340 199 481 511 385 854 -21 76 -130 310 -153 327 -8 7 -112 -49 -347
-188 -184 -109 -343 -202 -352 -208 -16 -10 -10 -23 54 -133 39 -68 76 -128
82 -135 8 -8 54 14 185 92 96 57 178 102 182 99 4 -2 13 -30 20 -61 11 -48 11
-65 -4 -122 -32 -122 -111 -212 -241 -277 -84 -41 -156 -54 -232 -42 -126 20
-241 108 -324 247 -160 269 -101 522 149 643 61 30 74 33 161 32 61 0 110 -6
136 -16 l40 -16 107 158 c59 87 107 163 107 168 0 5 -26 19 -57 31 -136 50
-293 63 -423 35z"/>
<path d="M7424 3702 c-109 -235 -253 -546 -321 -692 -68 -145 -123 -269 -123
-275 0 -8 141 -75 318 -152 l27 -11 124 269 c69 148 127 269 131 269 3 0 19
-136 34 -302 15 -167 30 -322 33 -344 l5 -42 209 -95 c115 -52 209 -92 209
-87 0 4 -25 162 -55 351 -30 189 -55 351 -55 359 0 12 19 15 113 15 104 0 116
2 170 29 107 55 201 178 242 320 13 43 16 84 13 151 -3 79 -8 101 -36 157 -50
102 -131 171 -299 256 -119 60 -198 97 -489 228 l-52 23 -198 -427z m496 -57
c152 -77 197 -153 156 -268 -38 -106 -102 -153 -196 -144 -55 5 -210 61 -210
76 0 8 137 309 160 351 6 11 13 20 16 20 2 0 36 -16 74 -35z"/>
<path d="M14067 3570 c-235 -76 -430 -139 -432 -142 -5 -5 434 -1440 444
-1451 7 -7 358 99 374 113 4 4 -31 134 -78 289 -48 155 -85 285 -82 287 2 3
109 38 236 78 128 41 234 76 235 78 2 2 -82 293 -88 305 -1 1 -107 -32 -236
-73 -129 -41 -238 -74 -242 -74 -4 0 -24 53 -44 118 -20 64 -38 122 -41 128
-2 6 98 42 244 89 136 43 252 81 256 85 5 4 -12 74 -37 154 -25 81 -46 149
-46 152 0 11 -67 -8 -463 -136z"/>
<path d="M9142 3480 c-251 -45 -470 -213 -583 -446 -62 -128 -91 -255 -91
-399 0 -146 23 -243 83 -353 108 -201 243 -308 474 -378 79 -23 108 -27 232
-28 114 0 146 3 157 14 13 14 139 411 132 417 -2 2 -39 -14 -82 -34 -76 -37
-83 -38 -184 -38 -86 1 -116 5 -162 24 -80 31 -160 106 -200 188 -28 58 -33
79 -36 162 -4 84 -1 106 23 176 32 97 70 158 136 220 97 90 229 124 359 90
117 -30 199 -95 272 -216 21 -34 38 -58 38 -53 0 5 29 103 64 217 l64 208 -62
49 c-79 64 -220 134 -320 160 -93 23 -240 33 -314 20z"/>
<path d="M10000 3308 c0 -7 -47 -348 -105 -758 -57 -409 -102 -746 -100 -748
6 -7 395 -55 401 -50 2 3 23 140 46 304 22 165 44 302 47 306 5 5 550 -59 558
-66 1 0 -18 -140 -42 -311 -24 -170 -43 -310 -42 -311 5 -4 402 -51 406 -48 4
3 211 1470 211 1499 0 19 -13 22 -187 44 -104 12 -195 25 -203 27 -13 3 -22
-43 -57 -291 -22 -163 -42 -297 -44 -299 -4 -3 -551 65 -557 69 -2 2 16 134
38 295 23 160 40 294 37 296 -3 4 -375 54 -399 54 -5 0 -8 -6 -8 -12z"/>
<path d="M12717 3290 c-243 -62 -443 -222 -555 -445 -108 -217 -108 -475 2
-698 104 -213 288 -358 537 -424 96 -25 280 -22 389 6 290 76 513 287 602 571
33 108 33 318 0 434 -61 212 -212 396 -399 490 -121 60 -198 78 -353 82 -120
3 -159 0 -223 -16z m348 -364 c215 -106 308 -417 195 -651 -74 -153 -258 -248
-421 -217 -177 33 -295 163 -336 371 -51 259 104 503 338 529 85 10 159 -1
224 -32z"/>
</g>
</svg>
